name rise30.8019peak61.5557fall86.2505.mot
datacolumns 19
datarows 26
range 9.84329600000000 9.88497000000000
endheader
time	ground_force1_vx	ground_force1_vy	ground_force1_vz	ground_force1_px	ground_force1_py	ground_force1_pz	ground_force2_vx	ground_force2_vy	ground_force2_vz	ground_force2_px	ground_force2_py	ground_force2_pz	ground_torque1_x	ground_torque1_y	ground_torque1_z	ground_torque2_x	ground_torque2_y	ground_torque2_z	
9.84329600000000	-3.30055200000000	44.01351900000000	-9.95502300000000	0.28240200000000	0.00000000000000	0.07664400000000	-53.24697700000000	787.51931100000002	-51.60743400000000	0.02428100000000	0.00000000000000	-0.08602400000000	0.00000000000000	-6.35953100000000	0.00000000000000	0.00000000000000	-10.77202700000000	0.00000000000000	
9.84496900000000	-3.52453800000000	49.94363900000000	-11.04981700000000	0.28549700000000	0.00000000000000	0.07713700000000	-53.85041800000000	786.00608199999999	-51.37553700000000	0.02349100000000	0.00000000000000	-0.08589600000000	0.00000000000000	-7.09328900000000	0.00000000000000	0.00000000000000	-10.74544300000000	0.00000000000000	
9.84663700000000	-3.67744000000000	55.71486300000000	-12.04366700000000	0.28837700000000	0.00000000000000	0.07760300000000	-54.47197300000000	784.39613399999996	-51.13190200000000	0.02269900000000	0.00000000000000	-0.08576500000000	0.00000000000000	-7.76791400000000	0.00000000000000	0.00000000000000	-10.72339800000000	0.00000000000000	
9.84830000000000	-3.75307000000000	61.26295500000000	-12.92086500000000	0.29106700000000	0.00000000000000	0.07804600000000	-55.11147100000000	782.68701299999998	-50.87635400000000	0.02190600000000	0.00000000000000	-0.08563300000000	0.00000000000000	-8.37267000000000	0.00000000000000	0.00000000000000	-10.70595600000000	0.00000000000000	
9.84996700000000	-3.74851300000000	66.55002200000000	-13.67309600000000	0.29358600000000	0.00000000000000	0.07846800000000	-55.76867400000000	780.87621100000001	-50.60871800000000	0.02111200000000	0.00000000000000	-0.08549800000000	0.00000000000000	-8.90163400000000	0.00000000000000	0.00000000000000	-10.69316500000000	0.00000000000000	
9.85163000000000	-3.66385500000000	71.56360900000000	-14.29898000000000	0.29595300000000	0.00000000000000	0.07887300000000	-56.44327300000000	778.96117300000003	-50.32880900000000	0.02031800000000	0.00000000000000	-0.08536100000000	0.00000000000000	-9.35345500000000	0.00000000000000	0.00000000000000	-10.68506300000000	0.00000000000000	
9.85330100000000	-3.50171700000000	76.31386800000000	-14.80312400000000	0.29818000000000	0.00000000000000	0.07926300000000	-57.13489200000000	776.93930300000000	-50.03644200000000	0.01952300000000	0.00000000000000	-0.08522200000000	0.00000000000000	-9.73078100000000	0.00000000000000	0.00000000000000	-10.68167400000000	0.00000000000000	
9.85496900000000	-3.26666300000000	80.82935999999999	-15.19485200000000	0.30028100000000	0.00000000000000	0.07964000000000	-57.84308300000000	774.80796699999996	-49.73142800000000	0.01872700000000	0.00000000000000	-0.08508100000000	0.00000000000000	-10.03945600000000	0.00000000000000	0.00000000000000	-10.68300900000000	0.00000000000000	
9.85663000000000	-2.96456200000000	85.15207599999999	-15.48676300000000	0.30226600000000	0.00000000000000	0.08000600000000	-58.56732700000000	772.56450199999995	-49.41357500000000	0.01793100000000	0.00000000000000	-0.08493800000000	0.00000000000000	-10.28757900000000	0.00000000000000	0.00000000000000	-10.68906700000000	0.00000000000000	
9.85829900000000	-2.60195400000000	89.33222900000000	-15.69327400000000	0.30414300000000	0.00000000000000	0.08036200000000	-59.30703000000000	770.20622400000002	-49.08269400000000	0.01713500000000	0.00000000000000	-0.08479300000000	0.00000000000000	-10.48455200000000	0.00000000000000	0.00000000000000	-10.69983100000000	0.00000000000000	
9.85996200000000	-2.18547800000000	93.42327400000001	-15.82926900000000	0.30592100000000	0.00000000000000	0.08071000000000	-60.06152700000000	767.73043399999995	-48.73859300000000	0.01633900000000	0.00000000000000	-0.08464600000000	0.00000000000000	-10.64017600000000	0.00000000000000	0.00000000000000	-10.71527500000000	0.00000000000000	
9.86163300000000	-1.72139600000000	97.47752300000001	-15.90894000000000	0.30760400000000	0.00000000000000	0.08105000000000	-60.83007500000000	765.13442499999996	-48.38108500000000	0.01554300000000	0.00000000000000	-0.08449700000000	0.00000000000000	-10.76386400000000	0.00000000000000	0.00000000000000	-10.73535400000000	0.00000000000000	
9.86329800000000	-1.21523000000000	101.54258799999999	-15.94488100000000	0.30919900000000	0.00000000000000	0.08138400000000	-61.61186000000000	762.41549399999997	-48.00998500000000	0.01474700000000	0.00000000000000	-0.08434600000000	0.00000000000000	-10.86402700000000	0.00000000000000	0.00000000000000	-10.76001300000000	0.00000000000000	
9.86496700000000	-0.67152700000000	105.65879600000000	-15.94746300000000	0.31070900000000	0.00000000000000	0.08171300000000	-62.40598900000000	759.57094700000005	-47.62511400000000	0.01395000000000	0.00000000000000	-0.08419300000000	0.00000000000000	-10.94763200000000	0.00000000000000	0.00000000000000	-10.78918200000000	0.00000000000000	
9.86663300000000	-0.09374400000000	109.85758300000001	-15.92447900000000	0.31213900000000	0.00000000000000	0.08203700000000	-63.21149300000000	756.59811000000002	-47.22629900000000	0.01315400000000	0.00000000000000	-0.08403800000000	0.00000000000000	-11.01995100000000	0.00000000000000	0.00000000000000	-10.82277600000000	0.00000000000000	
9.86830200000000	0.51576400000000	114.16083200000000	-15.88105700000000	0.31349100000000	0.00000000000000	0.08235700000000	-64.02733000000001	753.49433799999997	-46.81337500000000	0.01235700000000	0.00000000000000	-0.08388200000000	0.00000000000000	-11.08447800000000	0.00000000000000	0.00000000000000	-10.86069800000000	0.00000000000000	
9.86996300000000	1.15566200000000	118.58102400000000	-15.81977200000000	0.31476800000000	0.00000000000000	0.08267300000000	-64.85237700000000	750.25702400000000	-46.38618800000000	0.01156100000000	0.00000000000000	-0.08372300000000	0.00000000000000	-11.14299500000000	0.00000000000000	0.00000000000000	-10.90283500000000	0.00000000000000	
9.87163000000000	1.82548800000000	123.12204199999999	-15.74094500000000	0.31597200000000	0.00000000000000	0.08298700000000	-65.68543800000000	746.88360899999998	-45.94459200000000	0.01076400000000	0.00000000000000	-0.08356300000000	0.00000000000000	-11.19575700000000	0.00000000000000	0.00000000000000	-10.94906000000000	0.00000000000000	
9.87330200000000	2.52546200000000	127.78045700000000	-15.64304000000000	0.31710500000000	0.00000000000000	0.08329700000000	-66.52524000000000	743.37159199999996	-45.48845800000000	0.00996600000000	0.00000000000000	-0.08340200000000	0.00000000000000	-11.24175300000000	0.00000000000000	0.00000000000000	-10.99923200000000	0.00000000000000	
9.87496200000000	3.25627400000000	132.54709700000001	-15.52313600000000	0.31816700000000	0.00000000000000	0.08360600000000	-67.37043500000000	739.71853899999996	-45.01766700000000	0.00916800000000	0.00000000000000	-0.08323800000000	0.00000000000000	-11.27901600000000	0.00000000000000	0.00000000000000	-11.05319500000000	0.00000000000000	
9.87662900000000	4.01887000000000	137.40874700000001	-15.37741500000000	0.31916000000000	0.00000000000000	0.08391200000000	-68.21960100000000	735.92209100000002	-44.53212000000000	0.00836900000000	0.00000000000000	-0.08307300000000	0.00000000000000	-11.30495400000000	0.00000000000000	0.00000000000000	-11.11078000000000	0.00000000000000	
9.87829500000000	4.81425800000000	142.34981099999999	-15.20162900000000	0.32008300000000	0.00000000000000	0.08421700000000	-69.07124000000000	731.97997699999996	-44.03173400000000	0.00757000000000	0.00000000000000	-0.08290700000000	0.00000000000000	-11.31665500000000	0.00000000000000	0.00000000000000	-11.17180300000000	0.00000000000000	
9.87996100000000	5.64332700000000	147.35383999999999	-14.99150800000000	0.32093900000000	0.00000000000000	0.08452000000000	-69.92378500000000	727.89002100000005	-43.51644500000000	0.00676900000000	0.00000000000000	-0.08273900000000	0.00000000000000	-11.31118000000000	0.00000000000000	0.00000000000000	-11.23606500000000	0.00000000000000	
9.88163500000000	6.50671700000000	152.40482299999999	-14.74310800000000	0.32172600000000	0.00000000000000	0.08482200000000	-70.77559500000000	723.65015500000004	-42.98621200000000	0.00596600000000	0.00000000000000	-0.08257000000000	0.00000000000000	-11.28578500000000	0.00000000000000	0.00000000000000	-11.30335400000000	0.00000000000000	
9.88330300000000	7.40472000000000	157.48820400000000	-14.45306800000000	0.32244500000000	0.00000000000000	0.08512300000000	-71.62496299999999	719.25842200000000	-42.44101400000000	0.00516200000000	0.00000000000000	-0.08239900000000	0.00000000000000	-11.23810900000000	0.00000000000000	0.00000000000000	-11.37344400000000	0.00000000000000	
9.88497000000000	8.33721300000000	162.59159900000000	-14.11878100000000	0.32309500000000	0.00000000000000	0.08542200000000	-72.47011300000000	714.71299299999998	-41.88085700000000	0.00435600000000	0.00000000000000	-0.08222700000000	0.00000000000000	-11.16628900000000	0.00000000000000	0.00000000000000	-11.44609300000000	0.00000000000000	
